<svg xmlns="http://www.w3.org/2000/svg" version="1.1" xmlns:xlink="http://www.w3.org/1999/xlink" xmlns:svgjs="http://svgjs.dev/svgjs" width="1500" height="643" viewBox="0 0 1500 643"><g transform="matrix(1,0,0,1,-0.9090909090909918,-1.3048599835820482)"><svg viewBox="0 0 396 170" data-background-color="#e6e9e0" preserveAspectRatio="xMidYMid meet" height="643" width="1500" xmlns="http://www.w3.org/2000/svg" xmlns:xlink="http://www.w3.org/1999/xlink"><g id="tight-bounds" transform="matrix(1,0,0,1,0.2400000000000091,0.3449863098117447)"><svg viewBox="0 0 395.52 169.3100273803765" height="169.3100273803765" width="395.52"><g><svg viewBox="0 0 613.5444521671579 262.63963388829796" height="169.3100273803765" width="395.52"><g transform="matrix(1,0,0,1,216.04685216715814,81.15945905868335)"><svg viewBox="0 0 397.49759999999986 100.32071577093124" height="100.32071577093124" width="397.49759999999986"><g id="textblocktransform"><svg viewBox="0 0 397.49759999999986 100.32071577093124" height="100.32071577093124" width="397.49759999999986" id="textblock"><g><rect width="397.49759999999986" height="6.190173941589431" x="0" y="75.93372981288383" fill="#776e9a" opacity="1" stroke-width="0" stroke="transparent" fill-opacity="1" class="rect-yte-0" data-fill-palette-color="primary" rx="1%" id="yte-0" data-palette-color="#776e9a"></rect></g><g transform="matrix(1,0,0,1,0.9887999999999693,0)"><svg viewBox="0 0 395.5199999999999 68.64164009111617" height="68.64164009111617" width="395.5199999999999"><g transform="matrix(1,0,0,1,0,0)"><svg width="395.5199999999999" viewBox="4.55 -46.2 351.15999999999997 60.95" height="68.64164009111617" data-palette-color="#776e9a"><path d="M9.2-36.5L9.2-0.95 4.55 0.7 4.55-34.75 9.2-36.5ZM35.25-25.45Q37.25-25.45 37.85-23.98 38.45-22.5 38.45-19.9L38.45-19.9 38.45-18.35 38.45-4.2Q38.45-3.65 38.8-3.08 39.15-2.5 39.8-2.5L39.8-2.5Q40.65-2.5 41.25-3.05 41.85-3.6 42.45-4.45L42.45-4.45 43.2-3.7Q42.45-2.1 40.95-0.93 39.45 0.25 38.1 0.25L38.1 0.25Q36.1 0.25 35-1 33.9-2.25 33.9-4.8L33.9-4.8 33.9-18.05Q33.9-18.8 33.75-19.3 33.6-19.8 33-19.8L33-19.8Q30.95-19.8 28.8-15.85 26.65-11.9 25.12-7.03 23.6-2.15 23.6-0.6L23.6-0.6 19.25 0.7 19.25-20.7Q19.25-21.4 18.87-21.98 18.5-22.55 17.8-22.55L17.8-22.55Q16.6-22.55 15.2-20.4L15.2-20.4 14.45-21.2Q15.1-23 16.6-24.23 18.1-25.45 19.6-25.45L19.6-25.45Q21.7-25.45 22.72-24.45 23.75-23.45 23.75-21.7L23.75-21.7 23.75-8.55 23.95-8.55Q25.3-13 26.55-16.3 27.8-19.6 30.05-22.53 32.3-25.45 35.25-25.45L35.25-25.45ZM67.8-46.2L67.8-4.45Q67.8-3.75 68.12-3.18 68.45-2.6 69.15-2.6L69.15-2.6Q69.84-2.6 70.55-3.23 71.25-3.85 71.59-4.6L71.59-4.6 72.55-3.8Q71.75-2.1 70.27-0.93 68.8 0.25 67.4 0.25L67.4 0.25Q65.09 0.25 64.05-1.05 63-2.35 63.05-5.55L63.05-5.55 62.85-5.55Q59.8 0.6 55.4 0.6L55.4 0.6Q51.05 0.6 48.72-2.43 46.4-5.45 46.4-10L46.4-10Q46.4-13.6 47.95-17.15 49.5-20.7 52.37-23 55.25-25.3 59-25.3L59-25.3Q61.35-25.3 63.1-24.1L63.1-24.1 63.1-44.3 67.8-46.2ZM58.7-22.35Q55.9-22.35 54.07-20.6 52.25-18.85 51.4-16.38 50.55-13.9 50.55-11.75L50.55-11.75Q50.55-10.05 51.15-8 51.75-5.95 53.1-4.48 54.45-3 56.55-3L56.55-3Q60.35-3 61.72-6.28 63.1-9.55 63.1-13.5L63.1-13.5 63.1-20.35Q62.25-21.25 61.12-21.8 60-22.35 58.7-22.35L58.7-22.35ZM82.39-41.7L80.69-30.05 79.04-29.45 76.99-39.85 82.39-41.7ZM82.34-24.8L82.34-4.2Q82.34-3.45 82.72-2.98 83.09-2.5 83.79-2.5L83.79-2.5Q84.34-2.5 85.02-3 85.69-3.5 86.39-4.45L86.39-4.45 87.19-3.7Q86.04-1.55 84.42-0.65 82.79 0.25 81.44 0.25L81.44 0.25Q79.64 0.25 78.67-0.9 77.69-2.05 77.69-4.8L77.69-4.8 77.69-23 82.34-24.8ZM103.69-25Q106.14-25 108.32-23.95 110.49-22.9 111.49-20.75L111.49-20.75 107.89-18.8Q107.09-19.95 105.69-20.88 104.29-21.8 102.69-21.8L102.69-21.8Q100.14-21.8 98.24-20.48 96.34-19.15 95.34-16.9 94.34-14.65 94.34-11.9L94.34-11.9Q94.34-7.95 95.69-5.48 97.04-3 99.94-3L99.94-3Q104.04-3 105.59-6.3 107.14-9.6 107.14-13.5L107.14-13.5 107.14-15.75 111.54-17.6 111.54-4.45Q111.54-3.8 111.89-3.2 112.24-2.6 112.94-2.6L112.94-2.6Q114.39-2.6 115.59-4.6L115.59-4.6 116.34-3.8Q115.74-2.1 114.24-0.93 112.74 0.25 111.24 0.25L111.24 0.25Q109.09 0.25 108.07-1.35 107.04-2.95 107.04-5.6L107.04-5.6 106.94-5.6Q105.69-2.95 103.57-1.18 101.44 0.6 99.09 0.6L99.09 0.6Q94.84 0.6 92.67-2.33 90.49-5.25 90.49-10.15L90.49-10.15Q90.49-14.05 92.24-17.48 93.99-20.9 97.02-22.95 100.04-25 103.69-25L103.69-25ZM138.44-25.45Q140.44-25.45 141.04-23.98 141.64-22.5 141.64-19.9L141.64-19.9 141.64-18.35 141.64-4.2Q141.64-3.65 141.99-3.08 142.34-2.5 142.99-2.5L142.99-2.5Q143.84-2.5 144.44-3.05 145.04-3.6 145.64-4.45L145.64-4.45 146.39-3.7Q145.64-2.1 144.14-0.93 142.64 0.25 141.29 0.25L141.29 0.25Q139.29 0.25 138.19-1 137.09-2.25 137.09-4.8L137.09-4.8 137.09-18.05Q137.09-18.8 136.94-19.3 136.79-19.8 136.19-19.8L136.19-19.8Q134.14-19.8 131.99-15.85 129.84-11.9 128.31-7.03 126.79-2.15 126.79-0.6L126.79-0.6 122.44 0.7 122.44-20.7Q122.44-21.4 122.06-21.98 121.69-22.55 120.99-22.55L120.99-22.55Q119.79-22.55 118.39-20.4L118.39-20.4 117.64-21.2Q118.29-23 119.79-24.23 121.29-25.45 122.79-25.45L122.79-25.45Q124.89-25.45 125.91-24.45 126.94-23.45 126.94-21.7L126.94-21.7 126.94-8.55 127.14-8.55Q128.49-13 129.74-16.3 130.99-19.6 133.24-22.53 135.49-25.45 138.44-25.45L138.44-25.45ZM173.63-18.9Q176.48-19.45 178.33-19.45L178.33-19.45Q182.58-19.45 185.56-17.38 188.53-15.3 188.53-11.25L188.53-11.25Q188.53-6.6 185.06-3.28 181.58 0.05 176.58 1.75 171.58 3.45 167.03 3.55L167.03 3.55 166.73 2.35Q173.18 1 178.18-2.27 183.18-5.55 183.18-10.9L183.18-10.9Q183.18-12.85 181.98-14.4 180.78-15.95 178.91-16.8 177.03-17.65 174.98-17.65L174.98-17.65Q171.48-17.65 168.13-16.4L168.13-16.4 167.73-17.75Q172.08-19.6 175.48-22.6 178.88-25.6 178.88-29.25L178.88-29.25Q178.88-31.15 177.71-32.3 176.53-33.45 174.48-33.45L174.48-33.45Q171.53-33.45 169.73-31.28 167.93-29.1 167.18-26.13 166.43-23.15 166.43-20.45L166.43-20.45 166.43-1.3 161.78 0.4 161.78-17.7Q161.78-23.05 163.91-27.2 166.03-31.35 169.83-33.68 173.63-36 178.48-36L178.48-36Q180.88-36 182.53-34.75 184.18-33.5 184.18-31.2L184.18-31.2Q184.18-27.9 180.86-24.58 177.53-21.25 173.53-19.1L173.53-19.1 173.63-18.9ZM198.93-46.2L198.93-4.2Q198.93-3.6 199.28-3.05 199.63-2.5 200.48-2.5L200.48-2.5Q201.18-2.5 201.96-3.13 202.73-3.75 203.13-4.45L203.13-4.45 203.98-3.7Q203.13-2.05 201.63-0.9 200.13 0.25 198.63 0.25L198.63 0.25Q194.43 0.25 194.43-4.8L194.43-4.8 194.43-44.3 198.93-46.2ZM218.68-25.45L219.58-24.4Q215.83-22 213.68-19.05 211.53-16.1 211.53-12.1L211.53-12.1Q211.53-9.85 212.48-7.58 213.43-5.3 215.33-3.8 217.23-2.3 219.88-2.3L219.88-2.3Q222.03-2.3 223.7-3.3 225.38-4.3 226.3-6 227.23-7.7 227.23-9.75L227.23-9.75Q227.23-12.1 225.8-14.55 224.38-17 222.08-18.7 219.78-20.4 217.38-20.6L217.38-20.6Q218.38-21.6 219.78-22.7 221.18-23.8 222.63-24.85L222.63-24.85Q226.08-23.7 228.08-20.48 230.08-17.25 230.08-13.3L230.08-13.3Q230.08-9.8 228.65-6.58 227.23-3.35 224.48-1.33 221.73 0.7 217.98 0.7L217.98 0.7Q214.98 0.7 212.45-0.78 209.93-2.25 208.48-4.8 207.03-7.35 207.03-10.45L207.03-10.45Q207.03-15.9 210.25-19.9 213.48-23.9 218.68-25.45L218.68-25.45ZM246.18-25.45L247.08-24.4Q243.33-22 241.18-19.05 239.03-16.1 239.03-12.1L239.03-12.1Q239.03-9.85 239.97-7.58 240.93-5.3 242.83-3.8 244.72-2.3 247.38-2.3L247.38-2.3Q249.53-2.3 251.2-3.3 252.88-4.3 253.8-6 254.73-7.7 254.73-9.75L254.73-9.75Q254.73-12.1 253.3-14.55 251.88-17 249.58-18.7 247.28-20.4 244.88-20.6L244.88-20.6Q245.88-21.6 247.28-22.7 248.68-23.8 250.13-24.85L250.13-24.85Q253.58-23.7 255.58-20.48 257.57-17.25 257.57-13.3L257.57-13.3Q257.57-9.8 256.15-6.58 254.73-3.35 251.98-1.33 249.22 0.7 245.47 0.7L245.47 0.7Q242.47 0.7 239.95-0.78 237.43-2.25 235.97-4.8 234.53-7.35 234.53-10.45L234.53-10.45Q234.53-15.9 237.75-19.9 240.97-23.9 246.18-25.45L246.18-25.45ZM275.27-25.65Q277.67-25.65 279.87-24.33 282.07-23 283.22-20.75L283.22-20.75 279.62-18.8Q278.87-20.55 277.47-21.55 276.07-22.55 274.37-22.55L274.37-22.55Q271.87-22.55 270-20.85 268.12-19.15 267.1-16.65 266.07-14.15 266.07-11.9L266.07-11.9Q266.07-8.4 267.55-5.7 269.02-3 272.27-3L272.27-3Q275.97-3 277.37-6.33 278.77-9.65 278.77-13.5L278.77-13.5 278.77-15.75 283.27-17.6 283.27-2.3Q283.27 1.45 281.52 5.45 279.77 9.45 276.7 12.1 273.62 14.75 269.77 14.75L269.77 14.75Q267.02 14.75 265.42 12.85L265.42 12.85 269.67 9.25Q270.02 10.15 270.85 10.7 271.67 11.25 272.92 11.25L272.92 11.25Q276.67 11.25 277.8 8.47 278.92 5.7 278.92 1.5L278.92 1.5 278.77-2.6Q278.77-4.45 279.12-5.6L279.12-5.6 278.77-5.6Q276.92-2.7 275.2-1.05 273.47 0.6 271.07 0.6L271.07 0.6Q266.77 0.6 264.47-2.23 262.17-5.05 262.17-9.4L262.17-9.4Q262.17-13.65 263.9-17.38 265.62-21.1 268.65-23.38 271.67-25.65 275.27-25.65L275.27-25.65ZM296.17-41.7L294.47-30.05 292.82-29.45 290.77-39.85 296.17-41.7ZM296.12-24.8L296.12-4.2Q296.12-3.45 296.5-2.98 296.87-2.5 297.57-2.5L297.57-2.5Q298.12-2.5 298.79-3 299.47-3.5 300.17-4.45L300.17-4.45 300.97-3.7Q299.82-1.55 298.19-0.65 296.57 0.25 295.22 0.25L295.22 0.25Q293.42 0.25 292.44-0.9 291.47-2.05 291.47-4.8L291.47-4.8 291.47-23 296.12-24.8ZM323.47-25.45Q325.47-25.45 326.07-23.98 326.67-22.5 326.67-19.9L326.67-19.9 326.67-18.35 326.67-4.2Q326.67-3.65 327.02-3.08 327.37-2.5 328.02-2.5L328.02-2.5Q328.87-2.5 329.47-3.05 330.07-3.6 330.67-4.45L330.67-4.45 331.42-3.7Q330.67-2.1 329.17-0.93 327.67 0.25 326.32 0.25L326.32 0.25Q324.32 0.25 323.22-1 322.12-2.25 322.12-4.8L322.12-4.8 322.12-18.05Q322.12-18.8 321.97-19.3 321.82-19.8 321.22-19.8L321.22-19.8Q319.17-19.8 317.02-15.85 314.87-11.9 313.34-7.03 311.82-2.15 311.82-0.6L311.82-0.6 307.47 0.7 307.47-20.7Q307.47-21.4 307.09-21.98 306.72-22.55 306.02-22.55L306.02-22.55Q304.82-22.55 303.42-20.4L303.42-20.4 302.67-21.2Q303.32-23 304.82-24.23 306.32-25.45 307.82-25.45L307.82-25.45Q309.92-25.45 310.94-24.45 311.97-23.45 311.97-21.7L311.97-21.7 311.97-8.55 312.17-8.55Q313.52-13 314.77-16.3 316.02-19.6 318.27-22.53 320.52-25.45 323.47-25.45L323.47-25.45ZM347.71-25.65Q350.11-25.65 352.31-24.33 354.51-23 355.66-20.75L355.66-20.75 352.06-18.8Q351.31-20.55 349.91-21.55 348.51-22.55 346.81-22.55L346.81-22.55Q344.31-22.55 342.44-20.85 340.56-19.15 339.54-16.65 338.51-14.15 338.51-11.9L338.51-11.9Q338.51-8.4 339.99-5.7 341.46-3 344.71-3L344.71-3Q348.41-3 349.81-6.33 351.21-9.65 351.21-13.5L351.21-13.5 351.21-15.75 355.71-17.6 355.71-2.3Q355.71 1.45 353.96 5.45 352.21 9.45 349.14 12.1 346.06 14.75 342.21 14.75L342.21 14.75Q339.46 14.75 337.86 12.85L337.86 12.85 342.11 9.25Q342.46 10.15 343.29 10.7 344.11 11.25 345.36 11.25L345.36 11.25Q349.11 11.25 350.24 8.47 351.36 5.7 351.36 1.5L351.36 1.5 351.21-2.6Q351.21-4.45 351.56-5.6L351.56-5.6 351.21-5.6Q349.36-2.7 347.64-1.05 345.91 0.6 343.51 0.6L343.51 0.6Q339.21 0.6 336.91-2.23 334.61-5.05 334.61-9.4L334.61-9.4Q334.61-13.65 336.34-17.38 338.06-21.1 341.09-23.38 344.11-25.65 347.71-25.65L347.71-25.65Z" opacity="1" transform="matrix(1,0,0,1,0,0)" fill="#776e9a" class="wordmark-text-0" data-fill-palette-color="primary" id="text-0"></path></svg></g></svg></g><g transform="matrix(1,0,0,1,0,89.41599347624091)"><svg viewBox="0 0 232.2097919999999 10.904722294690334" height="10.904722294690334" width="232.2097919999999"><g transform="matrix(1,0,0,1,0,0)"><svg width="232.2097919999999" viewBox="2.15 -32.4 895.16 42.04" height="10.904722294690334" data-palette-color="#776e9a"><path d="M27.59-31.86L27-29 24.39-29 13.55-13.75 11.25-2.86 16.41-2.86 15.8 0 2.15 0 2.76-2.86 7.91-2.86 10.21-13.75 5.86-29 3.25-29 3.86-31.86 12.84-31.86 12.26-29 9.59-29 12.6-16.99 20.65-29 17.99-29 18.6-31.86 27.59-31.86ZM50.63-11.3L50.63-11.3Q50.05-8.64 48.74-6.47 47.43-4.3 45.54-2.75 43.65-1.2 41.25-0.32 38.84 0.56 36.13 0.56L36.13 0.56Q33.49 0.56 31.49-0.32 29.49-1.2 28.24-2.75 27-4.3 26.6-6.47 26.19-8.64 26.8-11.3L26.8-11.3Q27.34-13.89 28.67-16.13 30-18.36 31.89-19.93 33.79-21.51 36.19-22.4 38.6-23.29 41.23-23.29L41.23-23.29Q43.94-23.29 45.94-22.4 47.95-21.51 49.19-19.93 50.44-18.36 50.82-16.13 51.19-13.89 50.63-11.3ZM47.29-11.3L47.29-11.3Q47.7-13.26 47.47-14.9 47.24-16.55 46.36-17.8 45.48-19.04 44.04-19.75 42.6-20.46 40.6-20.46L40.6-20.46Q38.6-20.46 36.84-19.75 35.08-19.04 33.74-17.8 32.39-16.55 31.47-14.9 30.54-13.26 30.15-11.3L30.15-11.3Q29.68-9.35 29.92-7.7 30.15-6.05 30.99-4.86 31.83-3.66 33.29-2.98 34.74-2.29 36.74-2.29L36.74-2.29Q38.74-2.29 40.49-2.98 42.23-3.66 43.61-4.86 44.99-6.05 45.92-7.7 46.85-9.35 47.29-11.3ZM55.2-8.69L58.17-22.75 61.54-22.75 58.54-8.69Q57.93-5.64 58.88-3.97 59.83-2.29 62.79-2.29L62.79-2.29Q64.64-2.29 66.34-3.15 68.04-4 69.39-5.43 70.75-6.86 71.66-8.7 72.58-10.55 73.04-12.55L73.04-12.55 75.19-22.75 78.54-22.75 73.73 0 70.38 0 71.58-5.69Q67.84 0.56 61.64 0.56L61.64 0.56Q53.24 0.56 55.2-8.69L55.2-8.69ZM106.78-22.29L105.12-19.56Q103.48-20.46 100.97-20.46L100.97-20.46Q98.92-20.46 97.15-19.58 95.38-18.7 93.95-17.27 92.52-15.84 91.52-14 90.52-12.16 90.13-10.21L90.13-10.21 88.57-2.86 93.72-2.86 93.13 0 79.48 0 80.07-2.86 85.22-2.86 88.84-19.9 83.68-19.9 84.27-22.75 92.77-22.75 91.57-17.04Q95.23-23.29 101.63-23.29L101.63-23.29Q103.39-23.29 104.61-23.07 105.83-22.85 106.78-22.29L106.78-22.29ZM161.46-31.86L165.12-31.86 147.72 0 143.15 0 139.37-31.86 142.91-31.86 146.15-3.39 161.46-31.86ZM187.09-11.3L187.09-11.3Q186.51-8.64 185.2-6.47 183.9-4.3 182-2.75 180.11-1.2 177.71-0.32 175.3 0.56 172.59 0.56L172.59 0.56Q169.96 0.56 167.95-0.32 165.95-1.2 164.71-2.75 163.46-4.3 163.06-6.47 162.66-8.64 163.27-11.3L163.27-11.3Q163.8-13.89 165.13-16.13 166.46-18.36 168.36-19.93 170.25-21.51 172.65-22.4 175.06-23.29 177.69-23.29L177.69-23.29Q180.4-23.29 182.41-22.4 184.41-21.51 185.65-19.93 186.9-18.36 187.28-16.13 187.66-13.89 187.09-11.3ZM183.75-11.3L183.75-11.3Q184.16-13.26 183.93-14.9 183.7-16.55 182.82-17.8 181.94-19.04 180.5-19.75 179.06-20.46 177.06-20.46L177.06-20.46Q175.06-20.46 173.3-19.75 171.54-19.04 170.2-17.8 168.86-16.55 167.93-14.9 167-13.26 166.61-11.3L166.61-11.3Q166.15-9.35 166.38-7.7 166.61-6.05 167.45-4.86 168.3-3.66 169.75-2.98 171.2-2.29 173.2-2.29L173.2-2.29Q175.2-2.29 176.95-2.98 178.7-3.66 180.08-4.86 181.45-6.05 182.38-7.7 183.31-9.35 183.75-11.3ZM209.04-31.86L208.09-27.29 203.55-27.29 204.5-31.86 209.04-31.86ZM207.45-2.86L206.84 0 193.2 0 193.81-2.86 198.96-2.86 202.55-19.9 197.39-19.9 198-22.75 206.5-22.75 202.3-2.86 207.45-2.86ZM236.75-5.96L238.75-4.35Q236.8-2.1 234.01-0.77 231.23 0.56 227.79 0.56L227.79 0.56Q225.15 0.56 223.12-0.32 221.1-1.2 219.84-2.77 218.58-4.35 218.16-6.52 217.73-8.69 218.34-11.35L218.34-11.35Q218.9-13.94 220.17-16.15 221.44-18.36 223.26-19.93 225.08-21.51 227.43-22.4 229.79-23.29 232.45-23.29L232.45-23.29Q233.5-23.29 234.53-23.05 235.55-22.8 236.42-22.3 237.28-21.8 237.91-21.11 238.53-20.41 238.75-19.46L238.75-19.46 239.43-22.75 242.44-22.75 240.53-13.65 237.53-13.65Q237.85-15.16 237.57-16.41 237.28-17.65 236.52-18.55 235.75-19.46 234.51-19.96 233.28-20.46 231.79-20.46L231.79-20.46Q229.74-20.46 228.07-19.75 226.4-19.04 225.11-17.82 223.83-16.6 222.97-14.95 222.1-13.31 221.68-11.35L221.68-11.35Q221.24-9.4 221.49-7.75 221.73-6.1 222.61-4.91 223.49-3.71 224.94-3 226.4-2.29 228.4-2.29L228.4-2.29Q230.94-2.29 233.13-3.3 235.33-4.3 236.75-5.96L236.75-5.96ZM268.39-10.21L248.73-10.21Q248.34-6.59 250.14-4.44 251.93-2.29 255.59-2.29L255.59-2.29Q258.13-2.29 260.35-3.34 262.58-4.39 263.94-5.96L263.94-5.96 265.92-4.35Q263.72-1.95 261.07-0.7 258.42 0.56 254.98 0.56L254.98 0.56Q252.32 0.56 250.33-0.32 248.34-1.2 247.06-2.77 245.78-4.35 245.35-6.52 244.92-8.69 245.53-11.35L245.53-11.35Q246.07-13.94 247.33-16.13 248.59-18.31 250.43-19.91 252.27-21.51 254.63-22.4 256.98-23.29 259.62-23.29L259.62-23.29Q262.53-23.29 264.48-22.31 266.43-21.34 267.53-19.62 268.63-17.9 268.8-15.5 268.97-13.11 268.39-10.21L268.39-10.21ZM249.39-13.06L265.43-13.06Q265.68-16.8 263.91-18.63 262.14-20.46 258.99-20.46L258.99-20.46Q257.37-20.46 255.9-19.93 254.42-19.41 253.18-18.43 251.93-17.46 250.93-16.08 249.93-14.7 249.39-13.06L249.39-13.06ZM280.93-4.54L285.42-4.54 275.83 9.11 273.46 9.11 280.93-4.54ZM355.1-31.86L354.51-29 351.9-29 341.06-13.75 338.76-2.86 343.92-2.86 343.3 0 329.66 0 330.27-2.86 335.42-2.86 337.71-13.75 333.37-29 330.76-29 331.37-31.86 340.35-31.86 339.76-29 337.1-29 340.11-16.99 348.16-29 345.5-29 346.11-31.86 355.1-31.86ZM378.14-11.3L378.14-11.3Q377.56-8.64 376.25-6.47 374.94-4.3 373.05-2.75 371.16-1.2 368.75-0.32 366.35 0.56 363.64 0.56L363.64 0.56Q361 0.56 359-0.32 357-1.2 355.75-2.75 354.51-4.3 354.11-6.47 353.7-8.64 354.31-11.3L354.31-11.3Q354.85-13.89 356.18-16.13 357.51-18.36 359.4-19.93 361.3-21.51 363.7-22.4 366.11-23.29 368.74-23.29L368.74-23.29Q371.45-23.29 373.45-22.4 375.46-21.51 376.7-19.93 377.95-18.36 378.32-16.13 378.7-13.89 378.14-11.3ZM374.8-11.3L374.8-11.3Q375.21-13.26 374.98-14.9 374.75-16.55 373.87-17.8 372.99-19.04 371.55-19.75 370.11-20.46 368.11-20.46L368.11-20.46Q366.11-20.46 364.35-19.75 362.59-19.04 361.25-17.8 359.9-16.55 358.98-14.9 358.05-13.26 357.66-11.3L357.66-11.3Q357.19-9.35 357.43-7.7 357.66-6.05 358.5-4.86 359.34-3.66 360.8-2.98 362.25-2.29 364.25-2.29L364.25-2.29Q366.25-2.29 368-2.98 369.74-3.66 371.12-4.86 372.5-6.05 373.43-7.7 374.36-9.35 374.8-11.3ZM382.7-8.69L385.68-22.75 389.05-22.75 386.05-8.69Q385.44-5.64 386.39-3.97 387.34-2.29 390.3-2.29L390.3-2.29Q392.15-2.29 393.85-3.15 395.55-4 396.9-5.43 398.26-6.86 399.17-8.7 400.09-10.55 400.55-12.55L400.55-12.55 402.7-22.75 406.04-22.75 401.23 0 397.89 0 399.09-5.69Q395.35 0.56 389.15 0.56L389.15 0.56Q380.75 0.56 382.7-8.69L382.7-8.69ZM434.29-22.29L432.63-19.56Q430.99-20.46 428.48-20.46L428.48-20.46Q426.43-20.46 424.66-19.58 422.89-18.7 421.46-17.27 420.03-15.84 419.03-14 418.03-12.16 417.64-10.21L417.64-10.21 416.08-2.86 421.23-2.86 420.64 0 406.99 0 407.58-2.86 412.73-2.86 416.34-19.9 411.19-19.9 411.78-22.75 420.28-22.75 419.08-17.04Q422.74-23.29 429.14-23.29L429.14-23.29Q430.9-23.29 432.12-23.07 433.34-22.85 434.29-22.29L434.29-22.29ZM485.26-8.3L485.26-8.3Q484.82-6.3 483.65-4.68 482.48-3.05 480.83-1.88 479.18-0.71 477.25-0.07 475.32 0.56 473.37 0.56L473.37 0.56Q470.66 0.56 468.65-0.44 466.63-1.44 465.73-3.39L465.73-3.39 465.02 0 462.16 0 464.22-9.69 467.07-9.69Q466.73-8.06 467.18-6.7 467.63-5.35 468.6-4.37 469.56-3.39 470.97-2.84 472.37-2.29 473.98-2.29L473.98-2.29Q475.37-2.29 476.67-2.7 477.96-3.1 479.01-3.85 480.06-4.59 480.82-5.66 481.57-6.74 481.87-8.11L481.87-8.11Q482.23-9.64 481.78-10.74 481.33-11.84 480.35-12.62 479.38-13.4 478.07-13.95 476.76-14.5 475.42-15.04L475.42-15.04Q473.81-15.65 472.24-16.32 470.66-16.99 469.49-18.02 468.32-19.04 467.79-20.52 467.27-22 467.73-24.19L467.73-24.19Q468.17-26.15 469.32-27.67 470.47-29.2 472.04-30.25 473.61-31.3 475.49-31.85 477.37-32.4 479.28-32.4L479.28-32.4Q481.57-32.4 483.34-31.45 485.11-30.49 485.82-28.54L485.82-28.54 486.53-31.86 489.46-31.86 487.53-22.75 484.58-22.75Q484.87-24.19 484.54-25.45 484.21-26.71 483.39-27.6 482.57-28.49 481.35-29.02 480.13-29.54 478.67-29.54L478.67-29.54Q477.37-29.54 476.15-29.25 474.93-28.96 473.91-28.31 472.88-27.66 472.13-26.64 471.37-25.61 471.08-24.19L471.08-24.19Q470.83-22.95 471.27-22.07 471.71-21.19 472.61-20.52 473.52-19.85 474.77-19.3 476.03-18.75 477.37-18.19L477.37-18.19Q479.01-17.55 480.65-16.77 482.28-15.99 483.45-14.89 484.63-13.79 485.2-12.19 485.77-10.6 485.26-8.3ZM510.72-7.86L513.36-7.25Q512.21-3.66 509.34-1.55 506.47 0.56 502.81 0.56L502.81 0.56Q500.81 0.56 499.31-0.1 497.81-0.76 496.89-1.93 495.98-3.1 495.67-4.75 495.37-6.4 495.76-8.35L495.76-8.35 498.22-19.9 493.07-19.9 493.66-22.75 498.81-22.75 500.76-31.86 504.11-31.86 502.15-22.75 511.87-22.75 511.26-19.9 501.57-19.9 499.12-8.35Q498.86-7.1 499.02-6.01 499.17-4.91 499.72-4.08 500.27-3.25 501.19-2.77 502.1-2.29 503.42-2.29L503.42-2.29Q505.91-2.29 507.91-3.85 509.92-5.4 510.72-7.86L510.72-7.86ZM541.9-11.3L541.9-11.3Q541.31-8.64 540-6.47 538.7-4.3 536.81-2.75 534.91-1.2 532.51-0.32 530.1 0.56 527.39 0.56L527.39 0.56Q524.76 0.56 522.76-0.32 520.75-1.2 519.51-2.75 518.26-4.3 517.86-6.47 517.46-8.64 518.07-11.3L518.07-11.3Q518.6-13.89 519.94-16.13 521.27-18.36 523.16-19.93 525.05-21.51 527.45-22.4 529.86-23.29 532.5-23.29L532.5-23.29Q535.21-23.29 537.21-22.4 539.21-21.51 540.46-19.93 541.7-18.36 542.08-16.13 542.46-13.89 541.9-11.3ZM538.55-11.3L538.55-11.3Q538.97-13.26 538.73-14.9 538.5-16.55 537.62-17.8 536.74-19.04 535.3-19.75 533.86-20.46 531.86-20.46L531.86-20.46Q529.86-20.46 528.1-19.75 526.34-19.04 525-17.8 523.66-16.55 522.73-14.9 521.8-13.26 521.41-11.3L521.41-11.3Q520.95-9.35 521.18-7.7 521.41-6.05 522.25-4.86 523.1-3.66 524.55-2.98 526-2.29 528-2.29L528-2.29Q530.01-2.29 531.75-2.98 533.5-3.66 534.88-4.86 536.26-6.05 537.18-7.7 538.11-9.35 538.55-11.3ZM570.75-22.29L569.09-19.56Q567.45-20.46 564.94-20.46L564.94-20.46Q562.89-20.46 561.12-19.58 559.35-18.7 557.92-17.27 556.49-15.84 555.49-14 554.49-12.16 554.1-10.21L554.1-10.21 552.54-2.86 557.69-2.86 557.1 0 543.46 0 544.04-2.86 549.19-2.86 552.81-19.9 547.66-19.9 548.24-22.75 556.74-22.75 555.54-17.04Q559.2-23.29 565.6-23.29L565.6-23.29Q567.36-23.29 568.58-23.07 569.8-22.85 570.75-22.29L570.75-22.29ZM594.99-22.75L599-22.75 580.64 5.76Q579.2 8.15 577.29 8.9 575.39 9.64 573.29 9.64L573.29 9.64Q570.94 9.64 568.84 8.79L568.84 8.79 570.09 5.91Q571.09 6.4 572.16 6.6 573.24 6.81 573.95 6.81L573.95 6.81Q575.58 6.81 576.36 6.01 577.14 5.2 577.85 4.1L577.85 4.1 580 0.66 574.8-22.75 578.73-22.75 582.74-2.86 594.99-22.75ZM608.44-4.54L612.93-4.54 603.34 9.11 600.97 9.11 608.44-4.54ZM682.61-31.86L682.02-29 679.41-29 668.57-13.75 666.27-2.86 671.42-2.86 670.81 0 657.17 0 657.78-2.86 662.93-2.86 665.22-13.75 660.88-29 658.27-29 658.88-31.86 667.86-31.86 667.27-29 664.61-29 667.62-16.99 675.67-29 673.01-29 673.62-31.86 682.61-31.86ZM705.65-11.3L705.65-11.3Q705.06-8.64 703.76-6.47 702.45-4.3 700.56-2.75 698.67-1.2 696.26-0.32 693.86 0.56 691.15 0.56L691.15 0.56Q688.51 0.56 686.51-0.32 684.51-1.2 683.26-2.75 682.02-4.3 681.61-6.47 681.21-8.64 681.82-11.3L681.82-11.3Q682.36-13.89 683.69-16.13 685.02-18.36 686.91-19.93 688.8-21.51 691.21-22.4 693.61-23.29 696.25-23.29L696.25-23.29Q698.96-23.29 700.96-22.4 702.96-21.51 704.21-19.93 705.46-18.36 705.83-16.13 706.21-13.89 705.65-11.3ZM702.31-11.3L702.31-11.3Q702.72-13.26 702.49-14.9 702.26-16.55 701.38-17.8 700.5-19.04 699.06-19.75 697.62-20.46 695.62-20.46L695.62-20.46Q693.61-20.46 691.86-19.75 690.1-19.04 688.76-17.8 687.41-16.55 686.49-14.9 685.56-13.26 685.17-11.3L685.17-11.3Q684.7-9.35 684.94-7.7 685.17-6.05 686.01-4.86 686.85-3.66 688.3-2.98 689.76-2.29 691.76-2.29L691.76-2.29Q693.76-2.29 695.51-2.98 697.25-3.66 698.63-4.86 700.01-6.05 700.94-7.7 701.87-9.35 702.31-11.3ZM710.21-8.69L713.19-22.75 716.56-22.75 713.56-8.69Q712.95-5.64 713.9-3.97 714.85-2.29 717.81-2.29L717.81-2.29Q719.66-2.29 721.36-3.15 723.06-4 724.41-5.43 725.77-6.86 726.68-8.7 727.6-10.55 728.06-12.55L728.06-12.55 730.21-22.75 733.55-22.75 728.74 0 725.4 0 726.6-5.69Q722.86 0.56 716.66 0.56L716.66 0.56Q708.26 0.56 710.21-8.69L710.21-8.69ZM761.8-22.29L760.14-19.56Q758.5-20.46 755.99-20.46L755.99-20.46Q753.94-20.46 752.17-19.58 750.4-18.7 748.97-17.27 747.54-15.84 746.54-14 745.54-12.16 745.15-10.21L745.15-10.21 743.58-2.86 748.74-2.86 748.15 0 734.5 0 735.09-2.86 740.24-2.86 743.85-19.9 738.7-19.9 739.29-22.75 747.78-22.75 746.59-17.04Q750.25-23.29 756.65-23.29L756.65-23.29Q758.4-23.29 759.62-23.07 760.85-22.85 761.8-22.29L761.8-22.29ZM813.67-9.11L813.67-9.11Q812.72-4.54 809.3-2.27 805.88 0 800.44 0L800.44 0 790.28 0 797.02-31.86 806.64-31.86Q808.62-31.86 810.47-31.53 812.33-31.2 813.66-30.3 814.99-29.39 815.61-27.8 816.24-26.2 815.67-23.61L815.67-23.61Q814.62-18.65 809.28-16.85L809.28-16.85Q814.94-14.99 813.67-9.11ZM812.33-23.61L812.33-23.61Q812.67-25.29 812.2-26.37 811.72-27.44 810.76-28.02 809.79-28.59 808.51-28.8 807.23-29 806.03-29L806.03-29 799.78-29 797.49-18.19 803.74-18.19Q805.08-18.19 806.46-18.4 807.84-18.6 809.01-19.2 810.18-19.8 811.08-20.85 811.99-21.9 812.33-23.61ZM810.33-9.11L810.33-9.11Q811.04-12.4 809.23-13.9 807.42-15.41 803.69-15.41L803.69-15.41 796.88-15.41 794.24-2.86 801.03-2.86Q804.79-2.86 807.23-4.43 809.67-6.01 810.33-9.11ZM835.18-2.86L834.57 0 820.92 0 821.53-2.86 826.68-2.86 832.22-29 827.07-29 827.68-31.86 836.18-31.86 830.03-2.86 835.18-2.86ZM869.4-11.3L869.4-11.3Q868.82-8.64 867.51-6.47 866.21-4.3 864.31-2.75 862.42-1.2 860.02-0.32 857.61 0.56 854.9 0.56L854.9 0.56Q852.27 0.56 850.26-0.32 848.26-1.2 847.02-2.75 845.77-4.3 845.37-6.47 844.97-8.64 845.58-11.3L845.58-11.3Q846.11-13.89 847.44-16.13 848.78-18.36 850.67-19.93 852.56-21.51 854.96-22.4 857.37-23.29 860.01-23.29L860.01-23.29Q862.72-23.29 864.72-22.4 866.72-21.51 867.96-19.93 869.21-18.36 869.59-16.13 869.97-13.89 869.4-11.3ZM866.06-11.3L866.06-11.3Q866.48-13.26 866.24-14.9 866.01-16.55 865.13-17.8 864.25-19.04 862.81-19.75 861.37-20.46 859.37-20.46L859.37-20.46Q857.37-20.46 855.61-19.75 853.85-19.04 852.51-17.8 851.17-16.55 850.24-14.9 849.31-13.26 848.92-11.3L848.92-11.3Q848.46-9.35 848.69-7.7 848.92-6.05 849.76-4.86 850.61-3.66 852.06-2.98 853.51-2.29 855.51-2.29L855.51-2.29Q857.52-2.29 859.26-2.98 861.01-3.66 862.39-4.86 863.77-6.05 864.69-7.7 865.62-9.35 866.06-11.3ZM897.31-22.75L892.55-0.24Q892.06 2.1 890.86 3.93 889.67 5.76 887.93 7.03 886.2 8.3 884.08 8.97 881.95 9.64 879.56 9.64L879.56 9.64Q876.17 9.64 874.07 8.37 871.97 7.1 870.82 4.71L870.82 4.71 873.46 2.91Q874.16 4.49 875.91 5.57 877.65 6.64 880.22 6.64L880.22 6.64Q883.66 6.64 886.05 4.9 888.45 3.15 889.15-0.15L889.15-0.15 889.71-2.59Q886.1 0.05 882.32 0.05L882.32 0.05Q876.95 0.05 874.55-3 872.16-6.05 873.31-11.35L873.31-11.35Q873.85-13.94 875.1-16.13 876.36-18.31 878.18-19.91 880-21.51 882.33-22.4 884.66-23.29 887.3-23.29L887.3-23.29Q889.15-23.29 890.75-22.64 892.35-22 893.5-20.7L893.5-20.7 893.96-22.75 897.31-22.75ZM890.35-5.86L892.86-17.46Q891.72-19.04 890.14-19.75 888.57-20.46 886.66-20.46L886.66-20.46Q884.66-20.46 882.99-19.75 881.32-19.04 880.06-17.82 878.8-16.6 877.94-14.93 877.07-13.26 876.65-11.35L876.65-11.35Q875.8-7.45 877.32-5.13 878.85-2.81 882.9-2.81L882.9-2.81Q884.81-2.81 886.71-3.53 888.62-4.25 890.35-5.86L890.35-5.86Z" opacity="1" transform="matrix(1,0,0,1,0,0)" fill="#776e9a" class="slogan-text-1" data-fill-palette-color="secondary" id="text-1"></path></svg></g></svg></g></svg></g></svg></g><g><svg viewBox="0 0 199.8422083410078 262.63963388829796" height="262.63963388829796" width="199.8422083410078"><g><svg xmlns="http://www.w3.org/2000/svg" xmlns:xlink="http://www.w3.org/1999/xlink" version="1.1" x="0" y="0" viewBox="13.07 1.1965273370380143 73.86081580483071 97.07047266296198" enable-background="new 0 0 100 100" xml:space="preserve" height="262.63963388829796" width="199.8422083410078" class="icon-icon-0" data-fill-palette-color="accent" id="icon-0"><g fill="#776e9a" data-fill-palette-color="accent"><path d="M43.651 29.667S39.159 31.94 36.633 34.227C31.993 38.422 29.411 41.795 27.977 44.303 28.436 44.668 28.753 44.93 28.793 44.99 28.829 45.05 28.436 44.886 27.811 44.604A18 18 0 0 0 26.985 46.304C27.578 46.444 27.993 46.553 28.055 46.592 28.117 46.632 27.622 46.652 26.844 46.656 25.612 49.351 25.555 50.46 25.555 50.46S27.04 49.223 30.711 47.693C30.447 46.381 30.221 45.199 30.24 45.075 30.254 44.965 30.711 45.958 31.29 47.267 33.583 45.501 36.579 42.469 40.114 37.252 42.024 34.432 43.651 29.667 43.651 29.667M73.795 40.01L74.139 38.295 64.237 36.324 63.893 38.037zM73.303 42.907L73.403 41.161 64.118 40.63 64.018 42.379zM28.156 38.395L27.656 38.658C26.331 37.378 25.283 36.375 25.15 36.27 25.026 36.173 25.524 37.494 26.261 39.345 23.786 40.512 21.72 41.214 20.049 41.628 19.667 40.299 19.361 39.305 19.276 39.181 19.195 39.064 19.221 40.165 19.299 41.8 16.062 42.476 13.07 42.781 13.07 42.781S14.806 39.763 17.945 36.119C19.259 36.878 20.28 37.446 20.436 37.475 20.579 37.505 19.744 36.683 18.49 35.505A35 35 0 0 1 20.666 33.327C21.953 34.621 23.016 35.663 23.178 35.742 23.316 35.809 22.675 34.389 21.72 32.388 24.274 30.19 27.727 27.711 32.398 25.052 32.667 22.055 33.314 19.107 34.546 16.225A17.7 17.7 0 0 1 36.307 13.018C39.719 7.342 45.774 2.937 55.531 1.625 60.881 0.906 66.101 1.112 70.83 2.092L70.6 3.857 71.225 2.177C71.836 2.311 72.44 2.456 73.032 2.615L71.663 6.377 73.917 2.861C74.905 3.151 75.864 3.476 76.796 3.837A2880 2880 0 0 1 72.542 11.193C75.716 13.181 78.407 16.262 79.759 20.947 79.882 21.704 80.011 22.466 80.097 23.222 80.197 24.095 81.978 26.171 81.601 27.069 80.621 28.884 82.585 30.026 84.267 32.406 85.359 33.955 86.113 38.379 86.816 39.661 87.798 41.453 82.144 41.51 82.64 42.869 82.869 43.492 83.628 45.057 83.874 45.663 84.169 46.397 82.413 46.863 82.401 47.372 82.403 47.57 83.485 47.675 83.315 48.953 83.21 49.736 81.626 49.122 81.534 52.112 81.485 53.734 83.429 55.997 80.182 58.052 76.692 60.259 64.567 53.753 63.551 66.051 63.41 67.777 63.455 69.21 63.631 70.429 63.631 70.429 64.074 73.009 65.494 75.391 71.562 81.112 76.416 89.018 79.43 98.267H19.569C19.543 94.736 18.152 83.887 30.876 70.472L31.233 70.099 34.252 66.9C30.388 66.388 33.279 63.717 33.628 61.99 33.833 60.981 33.988 59.972 34.101 58.961L38.957 59.495A43 43 0 0 1 38.866 61.544C41.996 56.97 43.814 51.443 39.996 45.694A123 123 0 0 0 39.449 49.46C37.511 49.467 35.69 49.478 34.179 49.487A102 102 0 0 0 33.865 46.088C30.967 50.047 28.363 52.842 26.144 54.807 25.024 52.689 24.143 51.08 24.13 51.262 24.114 51.476 24.63 53.429 25.224 55.592 19.259 58.581 16.922 60.825 16.922 60.825S16.887 58.969 18.634 54.311C19.937 54.207 20.764 54.118 20.654 54.062 20.545 54.003 19.838 53.867 18.828 53.704 19.124 52.824 19.509 51.845 20.01 50.761 21.092 51.16 21.768 51.387 21.698 51.296 21.626 51.2 21.065 50.799 20.255 50.241 21.765 47.109 24.209 43.165 28.156 38.395M31.993 34.025C31.542 33.723 31.239 33.532 31.16 33.509 31.077 33.486 31.307 33.784 31.743 34.295zM39.064 53.447A55 55 0 0 0 38.994 54.768L35.287 53.944zM34.341 52.595A69 69 0 0 0 34.27 50.916C35.675 50.907 37.396 50.9 39.283 50.894 39.246 51.246 39.211 51.599 39.179 51.956zM38.96 57.627L38.964 58.061 34.235 57.538C34.293 56.767 34.33 55.992 34.347 55.221L38.956 56.247C38.951 56.698 38.953 57.16 38.96 57.627" fill="#776e9a" data-fill-palette-color="accent"></path></g></svg></g></svg></g></svg></g><defs></defs></svg><rect width="395.52" height="169.3100273803765" fill="none" stroke="none" visibility="hidden"></rect></g></svg></g></svg>